<svg xmlns="http://www.w3.org/2000/svg" viewBox="0 0 1200 675" role="img" aria-labelledby="title desc">
  <title id="title">AI Portrait Prompt Builder interface illustration</title>
  <desc id="desc">Abstract blue and purple prompt builder with workflow cards and a portrait frame</desc>
  <defs>
    <linearGradient id="bg" x1="0" y1="0" x2="1" y2="1">
      <stop offset="0" stop-color="#0f172a"/>
      <stop offset="0.48" stop-color="#172554"/>
      <stop offset="1" stop-color="#4c1d95"/>
    </linearGradient>
    <linearGradient id="accent" x1="0" y1="0" x2="1" y2="1">
      <stop offset="0" stop-color="#60a5fa"/>
      <stop offset="1" stop-color="#a78bfa"/>
    </linearGradient>
    <filter id="glow"><feGaussianBlur stdDeviation="34"/></filter>
  </defs>
  <rect width="1200" height="675" rx="36" fill="url(#bg)"/>
  <circle cx="1030" cy="80" r="190" fill="#7c3aed" opacity=".34" filter="url(#glow)"/>
  <circle cx="120" cy="610" r="220" fill="#2563eb" opacity=".3" filter="url(#glow)"/>
  <g transform="translate(70 70)">
    <rect width="1060" height="535" rx="28" fill="#0b1120" opacity=".88" stroke="#ffffff" stroke-opacity=".16"/>
    <circle cx="30" cy="29" r="7" fill="#fb7185"/><circle cx="55" cy="29" r="7" fill="#fbbf24"/><circle cx="80" cy="29" r="7" fill="#34d399"/>
    <path d="M0 58h1060" stroke="#fff" stroke-opacity=".12"/>
    <g transform="translate(24 84)">
      <rect width="218" height="427" rx="20" fill="#ffffff" fill-opacity=".05" stroke="#ffffff" stroke-opacity=".1"/>
      <text x="22" y="38" fill="#93c5fd" font-family="Arial,sans-serif" font-size="15" font-weight="700">WORKFLOW</text>
      <g fill="#fff" fill-opacity=".08">
        <rect x="18" y="60" width="182" height="48" rx="12"/><rect x="18" y="120" width="182" height="48" rx="12"/><rect x="18" y="180" width="182" height="48" rx="12"/><rect x="18" y="240" width="182" height="48" rx="12"/><rect x="18" y="300" width="182" height="48" rx="12"/>
      </g>
      <rect x="18" y="120" width="182" height="48" rx="12" fill="#2563eb"/>
      <g fill="#cbd5e1" font-family="Arial,sans-serif" font-size="13"><text x="36" y="90">Project Setup</text><text x="36" y="150" fill="#fff">Creative Direction</text><text x="36" y="210">Model Identity</text><text x="36" y="270">Camera + Lighting</text><text x="36" y="330">Shot Planning</text></g>
    </g>
    <g transform="translate(266 84)">
      <rect width="446" height="427" rx="20" fill="#fff" fill-opacity=".96"/>
      <text x="28" y="45" fill="#2563eb" font-family="Arial,sans-serif" font-size="14" font-weight="700">STEP 1.3</text>
      <text x="28" y="84" fill="#0f172a" font-family="Arial,sans-serif" font-size="25" font-weight="800">Visual Language</text>
      <rect x="28" y="112" width="390" height="60" rx="14" fill="#f8fafc" stroke="#cbd5e1"/>
      <text x="48" y="149" fill="#334155" font-family="Arial,sans-serif" font-size="16">Clean Editorial</text><path d="m386 137 8 8 8-8" fill="none" stroke="#64748b" stroke-width="2"/>
      <rect x="28" y="194" width="390" height="110" rx="16" fill="#eff6ff" stroke="#bfdbfe"/>
      <text x="48" y="224" fill="#1d4ed8" font-family="Arial,sans-serif" font-size="13" font-weight="700">RECOMMENDED</text>
      <text x="48" y="256" fill="#0f172a" font-family="Arial,sans-serif" font-size="17" font-weight="700">Japanese Magazine Beauty</text>
      <rect x="28" y="338" width="152" height="50" rx="14" fill="url(#accent)"/>
      <text x="65" y="369" fill="#fff" font-family="Arial,sans-serif" font-size="15" font-weight="700">Next Step</text>
    </g>
    <g transform="translate(736 84)">
      <rect width="300" height="427" rx="20" fill="#fff" fill-opacity=".06" stroke="#fff" stroke-opacity=".12"/>
      <text x="22" y="38" fill="#93c5fd" font-family="Arial,sans-serif" font-size="14" font-weight="700">LIVE PROMPT</text>
      <rect x="22" y="62" width="256" height="150" rx="18" fill="#0f172a" stroke="#60a5fa" stroke-opacity=".45"/>
      <rect x="42" y="82" width="92" height="108" rx="44" fill="url(#accent)" opacity=".88"/>
      <circle cx="88" cy="119" r="26" fill="#fff" fill-opacity=".22"/><path d="M55 180c7-29 24-44 33-44s26 15 33 44" fill="#fff" fill-opacity=".2"/>
      <rect x="154" y="88" width="95" height="8" rx="4" fill="#93c5fd"/><rect x="154" y="109" width="78" height="7" rx="3.5" fill="#fff" fill-opacity=".28"/><rect x="154" y="128" width="101" height="7" rx="3.5" fill="#fff" fill-opacity=".22"/><rect x="154" y="147" width="88" height="7" rx="3.5" fill="#fff" fill-opacity=".22"/>
      <g fill="#fff" fill-opacity=".12"><rect x="22" y="232" width="256" height="48" rx="12"/><rect x="22" y="292" width="256" height="48" rx="12"/><rect x="22" y="352" width="256" height="48" rx="12"/></g>
      <g fill="#cbd5e1" font-family="Arial,sans-serif" font-size="12"><text x="40" y="261">MODEL IDENTITY LOCK</text><text x="40" y="321">CAMERA + LIGHTING</text><text x="40" y="381">FILM + SHOT LIST</text></g>
    </g>
  </g>
</svg>
